<?xml version="1.0" standalone="no"?>
<!DOCTYPE svg PUBLIC "-//W3C//DTD SVG 20010904//EN"
 "http://www.w3.org/TR/2001/REC-SVG-20010904/DTD/svg10.dtd">
<svg version="1.0" xmlns="http://www.w3.org/2000/svg"
 width="500.000000pt" height="500.000000pt" viewBox="0 0 500.000000 500.000000"
 preserveAspectRatio="xMidYMid meet">
<metadata>
Created by potrace 1.11, written by Peter Selinger 2001-2013
</metadata>
<g transform="translate(0.000000,500.000000) scale(0.100000,-0.100000)"
fill="#000000" stroke="none">
<path d="M2329 4976 c-2 -2 -38 -6 -79 -10 -42 -3 -114 -13 -160 -22 -47 -8
-94 -16 -105 -18 -71 -11 -284 -75 -405 -123 -88 -34 -352 -166 -370 -183 -3
-3 -43 -30 -90 -61 -143 -95 -293 -220 -409 -343 -25 -27 -55 -58 -66 -70 -11
-12 -38 -43 -60 -71 -22 -27 -43 -51 -47 -53 -5 -2 -8 -10 -8 -17 0 -7 -3 -15
-8 -17 -13 -5 -72 -85 -72 -97 0 -6 -4 -11 -8 -11 -5 0 -16 -15 -25 -32 -10
-18 -35 -62 -57 -98 -101 -165 -218 -446 -261 -630 -6 -25 -13 -53 -15 -62
-21 -89 -45 -234 -52 -318 -13 -147 -6 -530 12 -580 2 -8 7 -37 10 -65 5 -43
29 -160 39 -190 2 -5 7 -28 12 -50 4 -22 10 -44 14 -50 3 -5 7 -21 9 -35 2
-13 7 -29 11 -35 4 -5 14 -30 21 -55 7 -25 18 -51 23 -57 5 -7 6 -13 2 -13 -4
0 0 -11 9 -25 9 -13 16 -29 16 -35 0 -25 175 -361 192 -368 4 -2 8 -9 8 -16 0
-7 9 -21 20 -31 11 -10 20 -22 20 -26 0 -10 58 -89 94 -130 13 -15 25 -31 27
-37 6 -16 143 -165 211 -229 34 -32 69 -65 79 -75 9 -9 52 -43 96 -77 43 -33
85 -67 94 -76 9 -8 21 -15 27 -15 5 0 12 -4 14 -8 10 -26 309 -191 465 -256
116 -48 343 -118 433 -132 19 -3 37 -7 40 -9 3 -2 33 -7 65 -10 33 -4 63 -9
67 -11 28 -17 491 -25 598 -11 179 24 244 35 277 48 13 5 23 6 23 4 0 -2 11 0
25 5 14 5 36 12 48 14 81 15 319 101 437 159 98 48 224 118 231 129 3 5 14 10
23 12 10 1 21 7 24 12 4 5 40 31 81 58 40 27 78 54 85 60 6 6 33 29 61 51 57
46 57 46 156 141 41 39 97 97 124 129 28 32 57 65 65 74 8 9 36 46 62 81 26
36 52 70 58 77 41 48 250 431 250 458 0 4 6 21 14 38 28 62 96 275 110 347 3
14 7 36 11 50 14 65 36 208 43 273 13 144 7 464 -12 597 -29 197 -102 465
-157 572 -5 10 -9 22 -9 28 0 22 -140 293 -181 352 -11 14 -19 29 -19 32 0 6
-39 65 -50 76 -3 3 -18 23 -33 46 -15 22 -35 49 -45 60 -10 10 -25 30 -34 43
-26 37 -144 165 -205 223 -31 29 -65 62 -77 73 -93 88 -310 242 -434 307 -29
15 -72 38 -95 51 -138 76 -429 179 -598 212 -51 10 -136 25 -174 30 -22 4 -51
9 -65 11 -30 6 -445 15 -451 10z"/>
</g>
</svg>
